<svg width="28" height="28" viewBox="0 0 28 28" fill="none" xmlns="http://www.w3.org/2000/svg">
<path fill-rule="evenodd" clip-rule="evenodd" d="M2 6.00012C2 5.44784 2.44772 5.00012 3 5.00012H25C25.5523 5.00012 26 5.44784 26 6.00012C26 6.55241 25.5523 7.00012 25 7.00012H3C2.44772 7.00012 2 6.55241 2 6.00012ZM2 22.0001C2 21.4478 2.44772 21.0001 3 21.0001H25C25.5523 21.0001 26 21.4478 26 22.0001C26 22.5524 25.5523 23.0001 25 23.0001H3C2.44772 23.0001 2 22.5524 2 22.0001ZM3 13.0001C2.44772 13.0001 2 13.4478 2 14.0001C2 14.5524 2.44772 15.0001 3 15.0001H18C18.5523 15.0001 19 14.5524 19 14.0001C19 13.4478 18.5523 13.0001 18 13.0001H3Z" fill="#0D0D0D"/>
</svg>
