<svg width="30" height="31" viewBox="0 0 30 31" fill="none" xmlns="http://www.w3.org/2000/svg">
<path fill-rule="evenodd" clip-rule="evenodd" d="M6.83741 7.33753C7.01319 7.16197 7.25147 7.06335 7.49991 7.06335C7.74835 7.06335 7.98663 7.16197 8.16241 7.33753L23.1624 22.3375C23.2545 22.4234 23.3284 22.5269 23.3796 22.6419C23.4309 22.7569 23.4584 22.881 23.4606 23.0069C23.4629 23.1328 23.4397 23.2578 23.3926 23.3745C23.3454 23.4913 23.2752 23.5973 23.1862 23.6863C23.0972 23.7754 22.9911 23.8455 22.8744 23.8927C22.7577 23.9398 22.6326 23.963 22.5068 23.9608C22.3809 23.9585 22.2567 23.931 22.1417 23.8798C22.0267 23.8285 21.9232 23.7546 21.8374 23.6625L6.83741 8.66253C6.66184 8.48675 6.56323 8.24847 6.56323 8.00003C6.56323 7.75159 6.66184 7.51331 6.83741 7.33753Z" fill="currentColor"/>
<path fill-rule="evenodd" clip-rule="evenodd" d="M23.1623 7.33753C23.3379 7.51331 23.4365 7.75159 23.4365 8.00003C23.4365 8.24847 23.3379 8.48675 23.1623 8.66253L8.16231 23.6625C7.98459 23.8281 7.74953 23.9183 7.50665 23.914C7.26378 23.9097 7.03205 23.8113 6.86028 23.6396C6.68851 23.4678 6.59012 23.2361 6.58584 22.9932C6.58155 22.7503 6.67171 22.5152 6.83731 22.3375L21.8373 7.33753C22.0131 7.16197 22.2514 7.06335 22.4998 7.06335C22.7482 7.06335 22.9865 7.16197 23.1623 7.33753Z" fill="currentColor"/>
</svg>
