<svg width="16" height="16" viewBox="0 0 16 16" fill="none" xmlns="http://www.w3.org/2000/svg">
<g opacity="0.6">
<path fill-rule="evenodd" clip-rule="evenodd" d="M3.87444 0.899414C3.08535 0.899414 2.32857 1.2128 1.77049 1.77066C1.21242 2.32852 0.898741 3.08519 0.898438 3.87427V11.8103C0.898438 12.5996 1.21198 13.3565 1.77009 13.9146C2.3282 14.4727 3.08515 14.7863 3.87444 14.7863H11.8104C12.5995 14.786 13.3562 14.4723 13.914 13.9142C14.4719 13.3561 14.7853 12.5994 14.7853 11.8103V3.87427C14.785 3.08538 14.4715 2.32889 13.9136 1.77106C13.3558 1.21324 12.5993 0.899717 11.8104 0.899414H3.87444ZM12.6664 3.87884C12.6664 4.10617 12.5761 4.32419 12.4154 4.48493C12.2546 4.64568 12.0366 4.73599 11.8093 4.73599C11.582 4.73599 11.3639 4.64568 11.2032 4.48493C11.0425 4.32419 10.9522 4.10617 10.9522 3.87884C10.9522 3.65151 11.0425 3.4335 11.2032 3.27275C11.3639 3.11201 11.582 3.0217 11.8093 3.0217C12.0366 3.0217 12.2546 3.11201 12.4154 3.27275C12.5761 3.4335 12.6664 3.65151 12.6664 3.87884ZM7.84358 5.46513C7.21312 5.46513 6.60849 5.71558 6.16269 6.16138C5.71689 6.60718 5.46644 7.21181 5.46644 7.84227C5.46644 8.47273 5.71689 9.07736 6.16269 9.52316C6.60849 9.96896 7.21312 10.2194 7.84358 10.2194C8.47404 10.2194 9.07867 9.96896 9.52447 9.52316C9.97027 9.07736 10.2207 8.47273 10.2207 7.84227C10.2207 7.21181 9.97027 6.60718 9.52447 6.16138C9.07867 5.71558 8.47404 5.46513 7.84358 5.46513ZM4.32244 7.84227C4.32244 6.90871 4.69329 6.01338 5.35342 5.35326C6.01355 4.69313 6.90888 4.32227 7.84244 4.32227C8.776 4.32227 9.67132 4.69313 10.3315 5.35326C10.9916 6.01338 11.3624 6.90871 11.3624 7.84227C11.3624 8.77583 10.9916 9.67116 10.3315 10.3313C9.67132 10.9914 8.776 11.3623 7.84244 11.3623C6.90888 11.3623 6.01355 10.9914 5.35342 10.3313C4.69329 9.67116 4.32244 8.77583 4.32244 7.84227Z" fill="#0D0D0D"/>
</g>
</svg>
