<svg width="40" height="40" viewBox="0 0 40 40" fill="none" xmlns="http://www.w3.org/2000/svg">
<path d="M25.7071 21.7071L28.3552 24.3552C28.7113 24.7113 28.7113 25.2887 28.3552 25.6448C26.43 27.57 23.3821 27.7866 21.204 26.153L19.6286 24.9714C17.885 23.6638 16.3362 22.115 15.0286 20.3714L13.847 18.796C12.2134 16.6179 12.43 13.57 14.3552 11.6448C14.7113 11.2887 15.2887 11.2887 15.6448 11.6448L18.2929 14.2929C18.6834 14.6834 18.6834 15.3166 18.2929 15.7071L17.2717 16.7283C17.1095 16.8905 17.0692 17.1385 17.1719 17.3437C18.3585 19.7171 20.2829 21.6415 22.6563 22.8281C22.8615 22.9308 23.1095 22.8905 23.2717 22.7283L24.2929 21.7071C24.6834 21.3166 25.3166 21.3166 25.7071 21.7071Z" stroke="#3A414A"/>
</svg>
