<svg width="9" height="15" viewBox="0 0 9 15" fill="none" xmlns="http://www.w3.org/2000/svg">
<path d="M0.714986 1.26469C0.646313 1.19313 0.592626 1.10895 0.55699 1.01696C0.521354 0.924968 0.504467 0.826965 0.507295 0.728546C0.510122 0.630127 0.532608 0.533221 0.573468 0.443359C0.614328 0.353497 0.672762 0.272441 0.745434 0.204817C0.818106 0.137193 0.903594 0.0843261 0.997014 0.049235C1.09044 0.014144 1.18996 -0.0024843 1.28991 0.000299826C1.38985 0.00308395 1.48826 0.0252258 1.57952 0.0654613C1.67078 0.105697 1.75309 0.163238 1.82177 0.234799L8.29193 6.98084C8.42555 7.12001 8.5 7.30427 8.5 7.49579C8.5 7.68731 8.42555 7.87157 8.29193 8.01074L1.82177 14.7575C1.75355 14.8307 1.67125 14.8897 1.57966 14.9313C1.48806 14.9728 1.389 14.996 1.28822 14.9995C1.18745 15.0031 1.08696 14.9868 0.992605 14.9518C0.89825 14.9167 0.811904 14.8636 0.738585 14.7954C0.665267 14.7272 0.606435 14.6454 0.565509 14.5547C0.524582 14.4639 0.502376 14.366 0.500181 14.2668C0.497985 14.1675 0.515843 14.0688 0.552719 13.9763C0.589594 13.8839 0.644751 13.7996 0.714986 13.7284L6.6919 7.49579L0.714986 1.26469Z" fill="#0D0D0D"/>
</svg>
