<svg width="22" height="22" viewBox="0 0 22 22" fill="none" xmlns="http://www.w3.org/2000/svg">
<mask id="mask0_615_2217" style="mask-type:luminance" maskUnits="userSpaceOnUse" x="2" y="2" width="18" height="18">
<path d="M2.29102 2.29169H19.7077V19.7084H2.29102V2.29169Z" fill="white"/>
</mask>
<g mask="url(#mask0_615_2217)">
<path d="M12.6402 2.42004L12.1177 2.3467C10.5474 2.11997 8.94496 2.34428 7.49726 2.99347C6.04956 3.64267 4.81622 4.69 3.94102 6.01337C3.00982 7.27835 2.45472 8.78055 2.33958 10.3471C2.22444 11.9136 2.55395 13.4808 3.29018 14.8684C3.36553 15.0074 3.41244 15.1601 3.42818 15.3175C3.44392 15.4749 3.42817 15.6338 3.38185 15.785C3.00602 17.0775 2.65768 18.3792 2.29102 19.745L2.74935 19.6075C3.98685 19.2775 5.22435 18.9475 6.46185 18.645C6.72305 18.5907 6.99454 18.6163 7.24102 18.7184C8.35128 19.2602 9.5646 19.5583 10.7996 19.5927C12.0345 19.627 13.2625 19.3968 14.4012 18.9175C15.5399 18.4382 16.5628 17.7208 17.4014 16.8136C18.2401 15.9064 18.8749 14.8303 19.2634 13.6576C19.6519 12.4848 19.7851 11.2425 19.6539 10.0141C19.5228 8.78562 19.1304 7.59942 18.5031 6.5351C17.8758 5.47077 17.0281 4.55293 16.0169 3.84318C15.0057 3.13344 13.8544 2.6482 12.6402 2.42004ZM14.9502 14.4467C14.617 14.745 14.2108 14.9496 13.7728 15.0398C13.3348 15.13 12.8807 15.1025 12.4569 14.96C10.536 14.4192 8.86958 13.214 7.75435 11.5592C7.32836 10.9739 6.98591 10.3322 6.73685 9.65254C6.60196 9.25816 6.57764 8.83439 6.66652 8.42717C6.75539 8.01995 6.95408 7.64485 7.24102 7.34254C7.3807 7.16426 7.57084 7.03218 7.78667 6.96351C8.00249 6.89484 8.23399 6.89276 8.45102 6.95754C8.63435 7.00337 8.76268 7.2692 8.92768 7.47087C9.06152 7.84945 9.21827 8.21979 9.39518 8.58004C9.52941 8.76384 9.58546 8.99327 9.55111 9.21826C9.51676 9.44324 9.3948 9.6455 9.21185 9.78087C8.79935 10.1475 8.86352 10.45 9.15685 10.8625C9.80534 11.7968 10.7001 12.5329 11.7418 12.9892C12.0352 13.1175 12.2552 13.145 12.4477 12.8425C12.5302 12.7234 12.6402 12.6225 12.7319 12.5125C13.2635 11.8434 13.0985 11.8525 13.9418 12.2192C14.2104 12.332 14.4708 12.464 14.721 12.6134C14.9685 12.76 15.3443 12.9159 15.3993 13.1359C15.4523 13.3745 15.4383 13.6232 15.3591 13.8544C15.2799 14.0857 15.1384 14.2906 14.9502 14.4467Z" fill="black" fill-opacity="0.5"/>
</g>
</svg>
