<svg width="30" height="30" viewBox="0 0 30 30" fill="none" xmlns="http://www.w3.org/2000/svg">
<path d="M21.8766 17.1832L18.1266 15.3082C18.0158 15.2531 17.8925 15.2282 17.769 15.2361C17.6456 15.2439 17.5264 15.2841 17.4234 15.3527L15.5859 16.5773C14.6557 16.1011 13.8989 15.3443 13.4227 14.4141L14.6484 12.5777C14.7171 12.4748 14.7573 12.3556 14.7651 12.2322C14.7729 12.1087 14.7481 11.9854 14.693 11.8746L12.818 8.12461C12.7597 8.00729 12.6698 7.90858 12.5584 7.83963C12.447 7.77068 12.3185 7.73423 12.1875 7.73438C11.0065 7.73438 9.8738 8.20354 9.03867 9.03867C8.20355 9.87379 7.73438 11.0065 7.73438 12.1875C7.73748 14.8594 8.80028 17.421 10.6896 19.3104C12.579 21.1997 15.1406 22.2625 17.8125 22.2656C18.9935 22.2656 20.1262 21.7965 20.9613 20.9613C21.7965 20.1262 22.2656 18.9935 22.2656 17.8125C22.2657 17.6818 22.2293 17.5537 22.1606 17.4425C22.0918 17.3314 21.9935 17.2416 21.8766 17.1832ZM17.8125 20.8594C15.5134 20.8566 13.3093 19.942 11.6836 18.3164C10.058 16.6907 9.14342 14.4866 9.14063 12.1875C9.1407 11.4521 9.40671 10.7416 9.88959 10.187C10.3725 9.63243 11.0396 9.27118 11.768 9.16992L13.2516 12.1371L12.034 13.9629C11.97 14.0592 11.9308 14.1698 11.9197 14.2849C11.9087 14.3999 11.9262 14.516 11.9707 14.6227C12.6173 16.1599 13.8401 17.3827 15.3774 18.0293C15.4841 18.0738 15.6001 18.0913 15.7152 18.0803C15.8302 18.0692 15.9408 18.03 16.0371 17.966L17.8629 16.7484L20.8301 18.232C20.7288 18.9604 20.3676 19.6275 19.813 20.1104C19.2584 20.5933 18.5479 20.8593 17.8125 20.8594ZM15 3.04688C12.9279 3.04644 10.8912 3.58468 9.08988 4.60879C7.28852 5.6329 5.78432 7.1077 4.72487 8.88851C3.66542 10.6693 3.0871 12.6949 3.04665 14.7667C3.0062 16.8384 3.50501 18.8851 4.49415 20.7059L3.13243 24.7922C3.03603 25.0813 3.02204 25.3915 3.09203 25.688C3.16202 25.9846 3.31322 26.2558 3.52869 26.4713C3.74416 26.6868 4.01539 26.838 4.31196 26.908C4.60854 26.978 4.91875 26.964 5.20782 26.8676L9.29415 25.5059C10.8937 26.3739 12.6704 26.8652 14.4887 26.9424C16.307 27.0195 18.119 26.6804 19.7863 25.951C21.4537 25.2215 22.9325 24.121 24.1099 22.7332C25.2873 21.3455 26.1323 19.7072 26.5805 17.9433C27.0286 16.1794 27.068 14.3364 26.6958 12.5549C26.3235 10.7735 25.5493 9.10055 24.4323 7.66371C23.3153 6.22687 21.885 5.06406 20.2503 4.26396C18.6157 3.46385 16.82 3.04758 15 3.04688ZM15 25.5469C13.146 25.5473 11.3247 25.059 9.71954 24.1313C9.61253 24.0697 9.4914 24.037 9.36798 24.0363C9.29232 24.0368 9.21719 24.049 9.14532 24.0727L4.76368 25.5328C4.72238 25.5466 4.67807 25.5486 4.6357 25.5386C4.59333 25.5286 4.55459 25.507 4.5238 25.4762C4.49302 25.4454 4.47142 25.4067 4.46142 25.3643C4.45142 25.3219 4.45342 25.2776 4.46719 25.2363L5.92735 20.8594C5.95894 20.7648 5.97006 20.6646 5.95996 20.5654C5.94985 20.4662 5.91877 20.3703 5.86876 20.284C4.70539 18.2743 4.23776 15.9369 4.53843 13.6344C4.83911 11.3318 5.89127 9.19284 7.53168 7.54931C9.1721 5.90578 11.3091 4.84957 13.611 4.54452C15.913 4.23948 18.2513 4.70267 20.2632 5.86222C22.275 7.02178 23.848 8.81288 24.738 10.9577C25.628 13.1024 25.7853 15.481 25.1855 17.7243C24.5857 19.9676 23.2623 21.9502 21.4207 23.3646C19.579 24.779 17.3221 25.5461 15 25.5469Z" fill="currentColor"/>
</svg>
