<?xml version="1.0" encoding="utf-8"?><svg viewBox="0 0 40 40" xmlns="http://www.w3.org/2000/svg" xmlns:xlink="http://www.w3.org/1999/xlink"><style>:root>svg{display:none}:root>svg:target{display:block}</style><svg fill="none" viewBox="0 0 40 40" id="arrow" xmlns="http://www.w3.org/2000/svg"><path d="m19.576 14 6.576 6.577m0 0-6.576 6.576m6.576-6.576H13" stroke="currentColor" stroke-width="1.5"/></svg><svg fill="none" viewBox="0 0 15 15" id="arrow-right" xmlns="http://www.w3.org/2000/svg"><path d="m6.576 1 6.576 6.577m0 0-6.576 6.576m6.576-6.576H0" stroke="currentColor" stroke-width="1.5"/></svg><svg fill="none" viewBox="0 0 28 28" id="burger" xmlns="http://www.w3.org/2000/svg"><path fill-rule="evenodd" clip-rule="evenodd" d="M2 6a1 1 0 0 1 1-1h22a1 1 0 1 1 0 2H3a1 1 0 0 1-1-1Zm0 16a1 1 0 0 1 1-1h22a1 1 0 1 1 0 2H3a1 1 0 0 1-1-1Zm1-9a1 1 0 1 0 0 2h15a1 1 0 1 0 0-2H3Z" fill="#0D0D0D"/></svg><svg fill="none" viewBox="0 0 30 31" id="cross" xmlns="http://www.w3.org/2000/svg"><path fill-rule="evenodd" clip-rule="evenodd" d="M6.837 7.338a.938.938 0 0 1 1.325 0l15 15a.938.938 0 1 1-1.325 1.325l-15-15a.937.937 0 0 1 0-1.325Z" fill="currentColor"/><path fill-rule="evenodd" clip-rule="evenodd" d="M23.162 7.338a.937.937 0 0 1 0 1.325l-15 15a.937.937 0 0 1-1.325-1.326l15-15a.938.938 0 0 1 1.325 0Z" fill="currentColor"/></svg><svg fill="none" viewBox="0 0 16 16" id="facebook" xmlns="http://www.w3.org/2000/svg"><path d="M9.334 9H11l.667-2.667H9.334V5c0-.687 0-1.333 1.333-1.333h1v-2.24a18.775 18.775 0 0 0-1.905-.094c-1.81 0-3.095 1.105-3.095 3.134v1.866h-2V9h2v5.667h2.667V9Z" fill="#0D0D0D" opacity=".6"/></svg><svg fill="none" viewBox="0 0 16 16" id="instagram" xmlns="http://www.w3.org/2000/svg"><path fill-rule="evenodd" clip-rule="evenodd" d="M3.874.9A2.976 2.976 0 0 0 .898 3.873v7.936a2.976 2.976 0 0 0 2.976 2.976h7.936a2.976 2.976 0 0 0 2.975-2.976V3.874A2.976 2.976 0 0 0 11.81.9H3.874Zm8.792 2.979a.857.857 0 1 1-1.714 0 .857.857 0 0 1 1.714 0ZM7.844 5.465a2.377 2.377 0 1 0 0 4.754 2.377 2.377 0 0 0 0-4.754ZM4.322 7.842a3.52 3.52 0 1 1 7.04 0 3.52 3.52 0 0 1-7.04 0Z" fill="#0D0D0D" opacity=".6"/></svg><svg fill="none" viewBox="0 0 12 8" id="link-arrow-next" xmlns="http://www.w3.org/2000/svg"><path d="M.24 4.544V3.368h9.544L7.32.904l.728-.728 3.784 3.784-3.784 3.784-.728-.728 2.472-2.472H.24Z" fill="#0D0D0D"/></svg><svg fill="none" viewBox="0 0 12 8" id="link-arrow-prev" xmlns="http://www.w3.org/2000/svg"><path d="M11.832 4.544H2.28l2.472 2.472-.728.728L.24 3.96 4.024.176l.728.728-2.464 2.464h9.544v1.176Z" fill="#0D0D0D"/></svg><svg fill="none" viewBox="0 0 30 30" id="loup" xmlns="http://www.w3.org/2000/svg"><circle cx="13.778" cy="13.778" r="7.333" stroke="currentColor" stroke-width="2"/><path d="M13.777 10.111a3.666 3.666 0 0 0-3.667 3.667M24.777 24.778 21.11 21.11" stroke="currentColor" stroke-width="2" stroke-linecap="round"/></svg><svg fill="none" viewBox="0 0 40 40" id="mail" xmlns="http://www.w3.org/2000/svg"><rect x="12" y="14" width="16" height="12" rx="2" stroke="#3A414A"/><path d="m12 17 7.106 3.553a2 2 0 0 0 1.788 0L28 17" stroke="#3A414A"/></svg><svg fill="none" viewBox="0 0 40 40" id="phone" xmlns="http://www.w3.org/2000/svg"><path d="m25.707 21.707 2.648 2.648a.912.912 0 0 1 0 1.29 5.471 5.471 0 0 1-7.151.508l-1.575-1.182a22.994 22.994 0 0 1-4.6-4.6l-1.182-1.575a5.471 5.471 0 0 1 .508-7.151.912.912 0 0 1 1.29 0l2.648 2.648a1 1 0 0 1 0 1.414l-1.021 1.021a.533.533 0 0 0-.1.616 12.262 12.262 0 0 0 5.484 5.484.533.533 0 0 0 .616-.1l1.02-1.02a1 1 0 0 1 1.415 0Z" stroke="#3A414A"/></svg><svg fill="none" viewBox="0 0 40 40" id="pin" xmlns="http://www.w3.org/2000/svg"><path d="M28 18.5c0 5.018-5.488 8.403-7.075 9.276a.87.87 0 0 1-.85 0C18.488 26.903 13 23.518 13 18.5c0-4.5 3.634-7.5 7.5-7.5 4 0 7.5 3 7.5 7.5Z" stroke="currentColor"/><circle cx="20.5" cy="18.5" r="3.5" stroke="currentColor"/></svg><svg fill="none" viewBox="0 0 23 27" id="play" xmlns="http://www.w3.org/2000/svg"><path d="M22 11.768c1.333.77 1.333 2.694 0 3.464L3.25 26.057c-1.333.77-3-.192-3-1.732V2.675c0-1.54 1.667-2.502 3-1.732L22 11.768Z" fill="#fff"/></svg><svg fill="none" viewBox="0 0 9 15" id="slider-arrow" xmlns="http://www.w3.org/2000/svg"><path d="M.715 1.265A.748.748 0 0 1 .507.729.74.74 0 0 1 .745.205.763.763 0 0 1 1.29 0a.771.771 0 0 1 .532.235l6.47 6.746a.743.743 0 0 1 0 1.03l-6.47 6.747a.76.76 0 0 1-.534.242.771.771 0 0 1-.55-.205.75.75 0 0 1-.238-.528.74.74 0 0 1 .215-.539l5.977-6.232L.715 1.265Z" fill="#0D0D0D"/></svg><svg fill="none" viewBox="0 0 24 24" id="tel" xmlns="http://www.w3.org/2000/svg"><path d="M14.456 3.605a.563.563 0 0 1 .69-.399 7.897 7.897 0 0 1 5.648 5.649.565.565 0 0 1-.544.708.562.562 0 0 1-.544-.418 6.783 6.783 0 0 0-4.851-4.851.563.563 0 0 1-.399-.69Zm-.351 3.689c1.364.364 2.238 1.237 2.601 2.601a.562.562 0 0 0 1.088-.29c-.469-1.754-1.645-2.93-3.399-3.399a.562.562 0 1 0-.29 1.088Zm7.447 9.094a5.086 5.086 0 0 1-5.052 4.424c-7.34 0-13.313-5.971-13.313-13.312A5.086 5.086 0 0 1 7.61 2.448a1.312 1.312 0 0 1 1.365.786l1.978 4.416a1.312 1.312 0 0 1-.145 1.298l-1.975 2.35a.177.177 0 0 0 0 .156c.718 1.47 2.26 3 3.75 3.718a.177.177 0 0 0 .158-.006l2.314-1.969a1.312 1.312 0 0 1 1.297-.154l4.43 1.985a1.313 1.313 0 0 1 .77 1.362v-.003Zm-1.114-.14a.188.188 0 0 0-.114-.187l-4.43-1.984a.178.178 0 0 0-.15.009l-2.313 1.969a1.312 1.312 0 0 1-1.343.133c-1.722-.832-3.438-2.531-4.27-4.237a1.313 1.313 0 0 1 .086-1.287.447.447 0 0 1 .04-.053L9.92 8.26a.188.188 0 0 0 0-.156l-1.975-4.42a.188.188 0 0 0-.172-.122H7.75A3.96 3.96 0 0 0 4.312 7.5c0 6.72 5.468 12.188 12.188 12.188a3.96 3.96 0 0 0 3.938-3.44Z" fill="currentColor"/></svg><svg fill="none" viewBox="0 0 26 26" id="telegram" xmlns="http://www.w3.org/2000/svg"><path d="M22.75 5.417 2.167 13.542l7.583 1.083m13-9.208-2.708 16.25L9.75 14.625m13-9.208-13 9.208m0 0v5.958l3.52-3.55" stroke="currentColor" stroke-width="1.3" stroke-linecap="round" stroke-linejoin="round"/></svg><svg fill="none" viewBox="0 0 16 16" id="telegram-fill" xmlns="http://www.w3.org/2000/svg"><g opacity=".6" clip-path="url(#pa)"><path d="M14.701 1.42.526 6.913c-.57.256-.764.768-.138 1.046l3.637 1.162 8.792-5.462c.48-.343.972-.252.549.126l-7.552 6.873-.237 2.908c.22.45.622.451.879.228l2.089-1.987 3.578 2.693c.831.495 1.284.176 1.462-.73l2.347-11.172c.244-1.115-.171-1.607-1.23-1.18Z" fill="#0D0D0D"/></g><defs><clipPath id="pa"><path fill="#fff" d="M0 0h16v16H0z"/></clipPath></defs></svg><svg fill="none" viewBox="0 0 30 30" id="whatsapp" xmlns="http://www.w3.org/2000/svg"><path d="m21.877 17.183-3.75-1.875a.702.702 0 0 0-.704.045l-1.837 1.224a4.98 4.98 0 0 1-2.163-2.163l1.225-1.836a.702.702 0 0 0 .045-.703l-1.875-3.75a.703.703 0 0 0-.63-.39 4.453 4.453 0 0 0-4.454 4.452 10.09 10.09 0 0 0 10.079 10.079 4.453 4.453 0 0 0 4.453-4.453.703.703 0 0 0-.39-.63Zm-4.064 3.676a8.683 8.683 0 0 1-8.672-8.672 3.047 3.047 0 0 1 2.627-3.017l1.484 2.967-1.218 1.826a.704.704 0 0 0-.063.66 6.379 6.379 0 0 0 3.406 3.406.704.704 0 0 0 .66-.063l1.826-1.218 2.967 1.484a3.047 3.047 0 0 1-3.017 2.627ZM15 3.047A11.953 11.953 0 0 0 4.494 20.706l-1.362 4.086a1.64 1.64 0 0 0 2.076 2.076l4.086-1.362A11.954 11.954 0 1 0 15 3.046Zm0 22.5c-1.854 0-3.675-.488-5.28-1.416a.713.713 0 0 0-.575-.058l-4.381 1.46a.234.234 0 0 1-.297-.297l1.46-4.377a.703.703 0 0 0-.058-.575A10.547 10.547 0 1 1 15 25.547Z" fill="currentColor"/></svg><svg fill="none" viewBox="0 0 22 22" id="whatsapp-fill" xmlns="http://www.w3.org/2000/svg"><mask id="ra" style="mask-type:luminance" maskUnits="userSpaceOnUse" x="2" y="2" width="18" height="18"><path d="M2.291 2.292h17.417v17.416H2.29V2.292Z" fill="#fff"/></mask><g mask="url(#ra)"><path d="m12.64 2.42-.522-.073A8.37 8.37 0 0 0 3.94 6.013a8.342 8.342 0 0 0-.65 8.855 1.191 1.191 0 0 1 .09.917c-.375 1.293-.723 2.594-1.09 3.96l.458-.137c1.238-.33 2.475-.66 3.713-.963a1.33 1.33 0 0 1 .779.073 8.664 8.664 0 0 0 12.413-8.704A8.662 8.662 0 0 0 12.64 2.42Zm2.31 12.027a2.53 2.53 0 0 1-2.493.513 8.424 8.424 0 0 1-4.703-3.4 7.802 7.802 0 0 1-1.017-1.907 2.282 2.282 0 0 1 .504-2.31 1.127 1.127 0 0 1 1.21-.385c.183.045.312.311.477.513.134.378.29.749.467 1.109a.862.862 0 0 1-.183 1.2c-.413.368-.348.67-.055 1.083a6.15 6.15 0 0 0 2.585 2.126c.293.128.513.156.706-.147.082-.119.192-.22.284-.33.532-.669.367-.66 1.21-.293.268.113.529.245.779.394.248.147.623.303.678.523a1.329 1.329 0 0 1-.449 1.31Z" fill="#000" fill-opacity=".5"/></g></svg><svg fill="none" viewBox="0 0 24 24" id="zoom" xmlns="http://www.w3.org/2000/svg"><g filter="url(#ta)"><path d="m21.407 19.753-4.41-4.41a8.147 8.147 0 0 0 1.633-4.903c0-4.516-3.674-8.19-8.19-8.19s-8.19 3.674-8.19 8.19 3.674 8.19 8.19 8.19a8.147 8.147 0 0 0 4.902-1.633l4.41 4.41a1.171 1.171 0 0 0 1.655-1.654ZM4.59 10.44a5.85 5.85 0 1 1 5.85 5.85 5.857 5.857 0 0 1-5.85-5.85Z" fill="#B2B2B2" fill-opacity=".8"/></g><defs><filter id="ta" x="-20" y="-20" width="64" height="64" filterUnits="userSpaceOnUse" color-interpolation-filters="sRGB"><feFlood flood-opacity="0" result="BackgroundImageFix"/><feGaussianBlur in="BackgroundImageFix" stdDeviation="10"/><feComposite in2="SourceAlpha" operator="in" result="effect1_backgroundBlur_586_3600"/><feBlend in="SourceGraphic" in2="effect1_backgroundBlur_586_3600" result="shape"/></filter></defs></svg></svg>